HIERARCHY
ROOT SpineBase
{
  OFFSET 0.000000 0.000000 0.000000
  CHANNELS 6 Xposition Yposition Zposition Zrotation Xrotation Yrotation
  JOINT SpineMid
  {
    OFFSET 0.000000 27.819018 0.000000
    CHANNELS 3 Zrotation Xrotation Yrotation
    JOINT SpineShoulder
    {
      OFFSET 0.123549 20.693798 -0.701287
      CHANNELS 3 Zrotation Xrotation Yrotation
      JOINT Neck
      {
        OFFSET 0.078451 6.852319 -0.533129
        CHANNELS 3 Zrotation Xrotation Yrotation
        JOINT Head
        {
          OFFSET 1.631833 13.795456 -2.833009
          CHANNELS 3 Zrotation Xrotation Yrotation
          End Site
          {
            OFFSET 0 0 0
          }
        }
      }
      JOINT ShoulderLeft
      {
        OFFSET -12.640970 -2.923181 -9.785686
        CHANNELS 3 Zrotation Xrotation Yrotation
        JOINT ElbowLeft
        {
          OFFSET -2.713412 -21.412228 -4.598302
          CHANNELS 3 Zrotation Xrotation Yrotation
          JOINT WristLeft
          {
            OFFSET 7.747473 -17.301593 -2.838496
            CHANNELS 3 Zrotation Xrotation Yrotation
            JOINT HandLeft
            {
              OFFSET -2.621793 -4.568069 4.488944
              CHANNELS 3 Zrotation Xrotation Yrotation
              JOINT HandTipLeft
              {
                OFFSET -0.510249 -6.960880 -0.582304
                CHANNELS 3 Zrotation Xrotation Yrotation
                End Site
                {
                  OFFSET 0 0 0
                }
              }
              JOINT ThumbLeft
              {
                OFFSET -6.326833 4.569469 0.726996
                CHANNELS 3 Zrotation Xrotation Yrotation
                End Site
                {
                  OFFSET 0 0 0
                }
              }
            }
          }
        }
      }
      JOINT ShoulderRight
      {
        OFFSET 14.397774 -3.572499 8.719165
        CHANNELS 3 Zrotation Xrotation Yrotation
        JOINT ElbowRight
        {
          OFFSET 0.724816 -24.274315 0.038239
          CHANNELS 3 Zrotation Xrotation Yrotation
          JOINT WristRight
          {
            OFFSET -0.440162 -16.425197 -10.713575
            CHANNELS 3 Zrotation Xrotation Yrotation
            JOINT HandRight
            {
              OFFSET -1.705176 -2.867961 -2.498841
              CHANNELS 3 Zrotation Xrotation Yrotation
              JOINT HandTipRight
              {
                OFFSET 1.386256 -6.009920 -2.419972
                CHANNELS 3 Zrotation Xrotation Yrotation
                End Site
                {
                  OFFSET 0 0 0
                }
              }
              JOINT ThumbRight
              {
                OFFSET -2.262959 -0.409295 -1.407001
                CHANNELS 3 Zrotation Xrotation Yrotation
                End Site
                {
                  OFFSET 0 0 0
                }
              }
            }
          }
        }
      }
    }
  }
  JOINT HipLeft
  {
    OFFSET -4.864403 0.772917 -6.482031
    CHANNELS 3 Zrotation Xrotation Yrotation
    JOINT KneeLeft
    {
      OFFSET -7.481329 -33.613057 3.965056
      CHANNELS 3 Zrotation Xrotation Yrotation
      JOINT AnkleLeft
      {
        OFFSET -1.281104 -27.886060 4.484232
        CHANNELS 3 Zrotation Xrotation Yrotation
        JOINT FootLeft
        {
          OFFSET 6.374041 -3.944629 -10.801819
          CHANNELS 3 Zrotation Xrotation Yrotation
          End Site
          {
            OFFSET 0 0 0
          }
        }
      }
    }
  }
  JOINT HipRight
  {
    OFFSET 5.878221 0.398336 0.124973
    CHANNELS 3 Zrotation Xrotation Yrotation
    JOINT KneeRight
    {
      OFFSET 10.631854 -32.468179 -12.262708
      CHANNELS 3 Zrotation Xrotation Yrotation
      JOINT AnkleRight
      {
        OFFSET -9.023728 -26.788413 6.881104
        CHANNELS 3 Zrotation Xrotation Yrotation
        JOINT FootRight
        {
          OFFSET 6.208603 -3.930401 -10.824235
          CHANNELS 3 Zrotation Xrotation Yrotation
          End Site
          {
            OFFSET 0 0 0
          }
        }
      }
    }
  }
}
MOTION
Frames: 8
Frame Time: 0.033333
-54.942358 70.789435 349.473510 -0.000000 0.000000 -31.592639 -0.000000 0.000000 31.592639 -0.000000 0.000000 0.000000 -0.000000 0.000000 0.000000 0.000000 0.000000 0.000000 -0.000000 0.000000 0.000000 -0.000000 0.000000 0.000000 -0.000000 0.000000 0.000000 -0.000000 0.000000 0.000000 0.000000 0.000000 0.000000 0.000000 0.000000 0.000000 -0.000000 0.000000 0.000000 -0.000000 0.000000 0.000000 -0.000000 0.000000 0.000000 -0.000000 0.000000 0.000000 0.000000 0.000000 0.000000 0.000000 0.000000 0.000000 -0.000000 0.000000 31.592639 -0.000000 0.000000 0.000000 -0.000000 0.000000 0.000000 0.000000 0.000000 0.000000 -0.000000 0.000000 31.592639 -0.000000 0.000000 0.000000 -0.000000 0.000000 0.000000 0.000000 0.000000 0.000000
-54.880810 70.788487 349.300628 0.114783 0.206946 -31.200557 0.009024 -0.236475 31.200368 -0.000000 0.000000 0.000000 -0.000000 0.000000 0.000000 0.000000 0.000000 0.000000 -0.000000 0.000000 0.000000 3.985812 -0.469165 -0.835466 5.657303 5.770928 7.547644 2.300485 -7.799121 -7.189264 0.000000 0.000000 0.000000 0.000000 0.000000 0.000000 -0.000000 0.000000 0.000000 -0.000000 0.000000 0.000000 0.094038 -2.250200 1.280446 0.123243 4.556251 -0.805676 0.000000 0.000000 0.000000 0.000000 0.000000 0.000000 0.009024 -0.236475 31.200368 -0.000000 0.000000 0.000000 -0.000000 0.000000 0.000000 0.000000 0.000000 0.000000 -0.988641 -1.213881 31.598701 3.546253 -1.118204 0.643707 -2.168883 1.451430 -1.015454 0.000000 0.000000 0.000000
-54.835102 70.781800 349.185517 0.202448 0.329735 -30.910136 -0.004314 -0.386900 30.909539 -0.000000 0.000000 0.000000 0.578557 -0.951416 0.235898 0.000000 0.000000 0.000000 -0.000000 0.000000 0.000000 6.973710 -0.888210 -1.451305 11.473778 12.447311 13.834414 4.984508 -16.726082 -12.350807 0.000000 0.000000 0.000000 0.000000 0.000000 0.000000 -0.000000 0.000000 0.000000 -0.742313 0.376284 0.475442 1.055767 -4.691449 1.879402 0.147157 8.274769 -1.525106 0.000000 0.000000 0.000000 0.000000 0.000000 0.000000 -0.004314 -0.386900 30.909539 0.964270 -0.902737 0.203954 -0.961171 0.906036 -0.188757 0.000000 0.000000 0.000000 -1.550200 -1.984761 31.504315 6.158624 -1.943122 1.286246 -3.952444 2.581520 -1.785742 0.000000 0.000000 0.000000
-54.805234 70.769373 349.128175 0.262965 0.368341 -30.719447 -0.037908 -0.450985 30.718452 -0.000000 0.000000 0.000000 0.837160 -1.292537 0.333776 0.000000 0.000000 0.000000 -0.000000 0.000000 0.000000 9.253152 -1.263081 -1.918538 16.310354 18.793634 18.431060 7.411606 -24.590675 -15.189930 0.000000 0.000000 0.000000 0.000000 0.000000 0.000000 -0.000000 0.000000 0.000000 -0.973838 0.521972 0.623662 1.666967 -6.692358 2.586281 0.028070 11.422019 -2.074528 0.000000 0.000000 0.000000 0.000000 0.000000 0.000000 -0.037908 -0.450985 30.718452 1.092466 -1.165545 0.240052 -1.087801 1.169901 -0.217833 0.000000 0.000000 0.000000 -1.686593 -2.324327 31.329263 7.807521 -2.434354 1.890138 -5.326053 3.342671 -2.320583 0.000000 0.000000 0.000000
-54.791206 70.751207 349.128603 0.296327 0.322806 -30.627390 -0.090539 -0.428737 30.626217 -0.000000 0.000000 0.000000 1.075033 -1.544517 0.417279 0.000000 0.000000 0.000000 0.293400 -0.863416 0.048714 10.711521 -0.764966 -2.490374 19.790680 23.947363 21.516896 8.933835 -29.780880 -16.869911 0.000000 0.000000 0.000000 0.000000 0.000000 0.000000 0.782004 -0.564639 -0.011772 -1.894467 1.204415 0.741982 2.335358 -8.444808 3.125279 -0.278029 14.142775 -2.391876 0.000000 0.000000 0.000000 0.000000 0.000000 0.000000 -0.090539 -0.428737 30.626217 0.983680 -1.303160 0.228914 -0.978720 1.306889 -0.206564 0.000000 0.000000 0.000000 -1.396622 -2.240826 31.080102 8.467702 -2.573507 2.428841 -6.273809 3.703080 -2.630778 0.000000 0.000000 0.000000
-54.793018 70.727302 349.186801 0.302549 0.193237 -30.633715 -0.161866 -0.320430 30.632752 -0.000000 0.000000 0.000000 1.292028 -1.707681 0.485767 0.000000 0.000000 0.000000 0.734075 -0.988196 -0.026155 11.620404 -0.950052 -2.744080 21.984694 27.640741 23.509934 9.272188 -31.997486 -18.654713 0.000000 0.000000 0.000000 0.000000 0.000000 0.000000 0.893120 -0.750491 -0.015149 -2.050392 1.481728 0.780749 3.064053 -9.937676 3.483077 -0.817527 16.524880 -2.422409 0.000000 0.000000 0.000000 0.000000 0.000000 0.000000 -0.161866 -0.320430 30.632752 0.637540 -1.315254 0.169995 -0.633803 1.317059 -0.155392 0.000000 0.000000 0.000000 -0.676005 -1.738403 30.750472 8.116343 -2.361111 2.889447 -6.785883 3.645187 -2.724575 0.000000 0.000000 0.000000
-54.828369 70.688184 349.300950 0.252992 -0.021703 -30.693286 -0.228629 -0.110475 30.693113 -0.000000 0.000000 0.000000 1.478245 -1.714257 0.527674 0.000000 0.000000 0.000000 1.233327 -1.288450 -0.088050 12.311906 -1.144890 -3.075490 23.487948 30.824288 24.880407 6.299538 -31.056827 -22.372753 0.000000 0.000000 0.000000 0.000000 0.000000 0.000000 1.014258 -0.917735 -0.017678 -2.409593 1.459484 0.954645 4.682312 -11.886265 3.642347 -2.628236 20.086275 -1.748719 0.000000 0.000000 0.000000 0.000000 0.000000 0.000000 -0.228629 -0.110475 30.693113 -0.544809 -1.222417 -0.037188 0.544140 1.222715 0.025570 0.000000 0.000000 0.000000 1.037871 -0.400207 30.049828 6.189001 -1.590555 3.433005 -6.986899 2.885559 -2.556497 0.000000 0.000000 0.000000
-54.872972 70.641321 349.462657 0.191880 -0.319696 -30.765088 -0.328410 0.176553 30.766130 -0.000000 0.000000 0.000000 1.659266 -1.633256 0.556947 0.000000 0.000000 0.000000 1.593446 -1.354702 -0.152353 11.942039 -1.832066 -3.260462 24.172434 32.990896 24.075046 2.744806 -27.677092 -24.870443 0.000000 0.000000 0.000000 0.000000 0.000000 0.000000 1.287783 -0.786617 -0.012615 -3.301471 1.045735 1.365970 4.335055 -12.636628 4.653449 -0.940705 23.131322 -3.040846 0.000000 0.000000 0.000000 0.000000 0.000000 0.000000 -0.328410 0.176553 30.766130 -1.794688 -0.830168 -0.262987 3.285226 2.475364 -1.193284 0.000000 0.000000 0.000000 1.851803 -0.003240 29.675132 5.571940 -0.531622 3.637222 -7.253574 2.225992 -2.434323 0.000000 0.000000 0.000000
